<?xml version="1.0" encoding="iso-8859-1"?>
<!-- Uploaded to: SVG Repo, www.svgrepo.com, Generator: SVG Repo Mixer Tools -->
<svg height="800px" width="800px" version="1.1" id="Layer_1" xmlns="http://www.w3.org/2000/svg" xmlns:xlink="http://www.w3.org/1999/xlink" 
	 viewBox="0 0 512 512" xml:space="preserve">
<circle style="fill:#C2D5D8;" cx="256" cy="256" r="256"/>
<path style="fill:#F2E5C2;" d="M348,140h-9.192c15.408,39.416,47.628,143.788-6.808,220c-20,28-51.016,40-92,40
	c-30.096,0-54.796-6.504-73.728-21.032C186.316,404.82,216.516,416,256,416c40.984,0,72-12,92-40C416.38,280.264,348,140,348,140z"
	/>
<path style="fill:#FFF1CC;" d="M348,140h-92h-92c0,0-68.38,140.264,0,236c20,28,51.016,40,92,40s72-12,92-40
	C416.38,280.264,348,140,348,140z"/>
<g>
	<path style="fill:#99602E;" d="M144.232,230.628c-13.568-35.528-37.464-125.316,62.012-110.46
		c8.724-90.756,125.64-8.4,179.584-22.608c-7.104,17.116-18.084,20.672-31.652,20.672c10.656,6.136,52.324,22.932,74.284,1.936
		c-27.452,95.924-178.608,54.908-198.312,22.608c1.292,13.18,15.828,34.56,21.64,37.144
		C176.204,135.348,141.32,142.776,144.232,230.628z"/>
	<path style="fill:#99602E;" d="M356.104,165.064c3.552,5.812,13.568,46.508,9.692,65.564c3.552-8.72,19.376-43.28,7.096-71.7
		C363.856,151.82,356.104,165.064,356.104,165.064z"/>
</g>
<g>
	<path style="fill:#805026;" d="M230.14,142.776c0.452,0.196,0.888,0.348,1.34,0.544l-0.588-1.356L230.14,142.776z"/>
	<path style="fill:#805026;" d="M396.504,130.308c-30.148,29.348-84.716,47.164-165.024,13.012l1.264,2.908
		c27.66,31.58,169.224,66.48,195.708-26.056C419.82,128.42,408.144,130.788,396.504,130.308z"/>
	<path style="fill:#805026;" d="M134.784,199.012c2.584,12.136,6.284,23.348,9.44,31.612c-2.912-87.852,31.972-95.28,107.556-50.708
		c-3.26-1.448-9.264-8.812-14.136-17.328C163.852,123.236,137.844,155.668,134.784,199.012z"/>
</g>
<g>
	<path style="fill:#A66831;" d="M368.532,99.208c-58.28-1.768-154.416-61.008-162.288,20.96
		C222.752,54.912,333.352,121.152,368.532,99.208z"/>
	<path style="fill:#A66831;" d="M206.244,120.168c-99.476-14.856-75.58,74.932-62.012,110.46
		C113,133.248,177.004,125.332,206.244,120.168z"/>
</g>
</svg>